<svg width="512" height="252" viewBox="0 0 512 252" fill="none" xmlns="http://www.w3.org/2000/svg">
<path d="M207.31 79.7999C204.3 79.7999 201.3 79.7699 198.29 79.8099C196.66 79.8399 195.33 79.3599 194.68 77.8099C194.03 76.2599 194.23 74.7699 195.65 73.6999C196.58 72.9899 195.77 72.6199 195.43 72.2299C186.99 62.5299 176.88 55.11 165 50.16C117.58 30.4 64 58.2599 52.87 108.43C43.16 152.21 71.87 196.93 115.87 206.11C141.18 211.39 164.17 205.86 184.59 189.96C185.59 189.18 186.59 188.72 187.89 188.73C203.07 188.76 218.26 188.74 233.44 188.75C235.97 188.75 237.42 190.21 237.25 192.49C237.14 193.91 236.39 194.96 235.08 195.31C232.09 196.11 230.24 198.16 228.46 200.53C224.82 205.38 220.65 209.79 216.24 213.95C214.54 215.55 213.34 215.71 211.25 214.61C206.03 211.87 200.8 209.14 195.6 206.36C194.79 205.92 194.25 205.95 193.51 206.52C190.24 209.01 186.8 211.27 183.2 213.26C182.33 213.74 182.07 214.28 182.15 215.25C182.62 221.13 183.03 227.01 183.44 232.89C183.61 235.32 183.03 236.22 180.81 237.16C174.4 239.9 167.79 242.02 161.01 243.62C158.77 244.15 157.62 243.67 156.36 241.67C153.21 236.69 150.06 231.7 146.95 226.7C146.47 225.93 145.99 225.61 145.06 225.76C140.99 226.42 136.87 226.52 132.76 226.45C131.74 226.43 131.3 226.84 130.89 227.7C128.37 232.97 125.81 238.22 123.25 243.46C122.15 245.7 121.23 246.25 118.72 245.95C111.75 245.12 104.9 243.7 98.18 241.63C96.19 241.02 95.47 240.09 95.38 237.95C95.11 232.01 94.85 226.06 94.65 220.12C94.62 219.13 94.28 218.65 93.37 218.27C89.62 216.72 86 214.88 82.54 212.76C81.6 212.18 81.01 212.31 80.18 212.89C75.41 216.18 70.6 219.41 65.8 222.66C63.74 224.06 62.49 224.03 60.5 222.52C54.97 218.36 49.83 213.77 45.09 208.73C43.58 207.12 43.37 205.84 44.4 203.87C47.13 198.65 49.87 193.43 52.66 188.24C53.12 187.39 53.13 186.79 52.52 185.99C49.99 182.68 47.71 179.2 45.7 175.56C45.32 174.88 44.91 174.6 44.09 174.66C38.15 175.13 32.21 175.54 26.27 175.99C23.93 176.17 22.84 175.57 21.93 173.44C19.15 166.94 16.95 160.26 15.38 153.36C14.93 151.36 15.41 150.2 17.17 149.08C22.15 145.92 27.14 142.77 32.16 139.67C33.09 139.1 33.4 138.55 33.24 137.41C32.68 133.5 32.46 129.55 32.56 125.6C32.59 124.41 32.16 123.86 31.12 123.37C26.02 120.97 20.96 118.49 15.89 116.04C13.21 114.74 12.78 113.9 13.13 110.95C13.94 104.2 15.35 97.5699 17.31 91.0499C17.99 88.7899 18.93 88.0899 21.3 87.9999C27.15 87.7699 32.99 87.5099 38.84 87.3299C39.91 87.2999 40.4 86.9099 40.8 85.9499C42.32 82.2999 44.12 78.78 46.17 75.41C46.77 74.42 46.8 73.7299 46.12 72.7599C42.84 68.0499 39.64 63.2899 36.42 58.5399C34.92 56.3299 34.95 55.2699 36.57 53.1199C40.7 47.6399 45.26 42.54 50.27 37.85C52 36.23 53.17 36.0599 55.26 37.1499C60.4 39.8299 65.54 42.5 70.64 45.24C71.66 45.79 72.34 45.81 73.29 45.07C76.45 42.6 79.82 40.4399 83.33 38.5099C84.21 38.0299 84.48 37.4999 84.4 36.5299C83.94 30.7599 83.52 24.98 83.13 19.21C82.93 16.31 83.44 15.5699 86.17 14.4199C92.35 11.8199 98.71 9.76996 105.22 8.20996C107.83 7.57996 108.87 8.00995 110.35 10.36C113.36 15.12 116.39 19.8699 119.34 24.6699C120 25.7399 120.61 26.15 121.95 25.94C125.86 25.35 129.82 25.1899 133.78 25.2599C134.77 25.2799 135.26 24.9599 135.68 24.0599C138.16 18.8299 140.7 13.6299 143.23 8.42994C144.41 6.00994 145.27 5.53996 147.99 5.84996C154.86 6.63996 161.6 8.08996 168.23 10.07C170.33 10.7 171.06 11.6 171.17 13.82C171.45 19.76 171.69 25.7099 171.9 31.6499C171.93 32.6299 172.27 33.1 173.19 33.49C176.89 35.03 180.46 36.8399 183.9 38.8999C184.84 39.4599 185.47 39.5 186.41 38.85C191.17 35.54 195.99 32.33 200.79 29.08C202.91 27.65 204.02 27.6799 206.08 29.2299C211.53 33.3199 216.58 37.85 221.27 42.8C223.14 44.78 223.27 45.8399 221.97 48.3099C219.3 53.3799 216.65 58.47 213.93 63.52C213.47 64.38 213.51 64.9399 214.06 65.7599C215.94 68.5499 217.75 71.3999 219.48 74.2799C221.17 77.0999 219.62 79.7799 216.34 79.7999C213.32 79.8199 210.31 79.7999 207.31 79.7999Z" fill="#B80504"/>
<path d="M89.8999 125.02C89.8999 111.54 89.8899 98.0699 89.8999 84.5899C89.9099 79.1899 93.1699 74.6599 97.9099 73.3699C98.9399 73.0899 99.9799 73.0099 101.04 73.0099C116.43 73.0099 131.82 72.99 147.21 73.02C153.2 73.03 157.79 77.2899 158.28 83.1799C158.76 88.8999 155.05 93.79 149.4 94.82C148.58 94.97 147.72 94.9799 146.88 94.9799C135.65 94.9899 124.43 95.01 113.2 94.96C111.89 94.95 111.53 95.29 111.55 96.6C111.63 101.76 111.62 106.92 111.55 112.07C111.53 113.29 111.91 113.54 113.06 113.54C120.86 113.49 128.66 113.48 136.46 113.53C141.59 113.56 145.91 117.06 147.09 122.02C148.26 126.92 145.87 132.02 141.3 134.35C139.77 135.13 138.14 135.46 136.42 135.45C128.67 135.43 120.92 135.47 113.18 135.41C111.84 135.4 111.53 135.79 111.55 137.07C111.62 142.49 111.62 147.91 111.55 153.33C111.53 154.63 111.86 154.99 113.19 154.99C124.52 154.94 135.85 154.92 147.19 154.97C154.92 155 160.06 162.11 157.76 169.47C156.5 173.49 152.78 176.5 148.58 176.84C147.85 176.9 147.11 176.92 146.37 176.92C131.56 176.92 116.75 176.76 101.94 177C95.5899 177.1 89.6799 172.34 89.8199 164.81C90.0799 151.55 89.8999 138.29 89.8999 125.02Z" fill="#B80504"/>
<path d="M367.58 149.8C367.58 155.32 367.6 160.69 367.57 166.05C367.54 171.44 363.13 176.35 357.94 176.84C352.28 177.38 346.97 173.61 345.83 168.21C345.68 167.5 345.64 166.75 345.64 166.02C345.63 139.07 345.62 112.12 345.64 85.17C345.64 79.61 349.95 74.96 355.56 74.31C360.97 73.68 366 77.19 367.31 82.48C367.57 83.52 367.57 84.56 367.57 85.62C367.57 98.15 367.57 110.67 367.58 123.2C367.58 123.54 367.43 123.93 368.15 124.74C368.54 124.14 368.83 123.5 369.29 123.04C376.91 115.39 384.53 107.74 392.2 100.15C397.11 95.3 405.26 96.2 409.12 101.92C411.97 106.15 411.44 111.79 407.73 115.54C400.95 122.38 394.13 129.2 387.26 135.96C386.3 136.91 386.38 137.36 387.3 138.26C394.08 144.89 400.82 151.56 407.52 158.25C411.2 161.92 411.96 167.01 409.59 171.29C407.28 175.47 402.08 177.81 397.31 176.81C395.17 176.36 393.47 175.17 391.94 173.66C384.32 166.09 376.69 158.52 369.06 150.96C368.69 150.56 368.38 150.04 367.58 149.8Z" fill="#B80504"/>
<path d="M495.7 137.72C495.5 113.4 475.02 95.4501 450.97 98.5101C429.72 101.21 414.2 121.44 417.09 142.67C420.82 169.92 450.66 185.25 474.83 172.29C475.57 171.9 476 171.8 476.63 172.59C479.76 176.53 484.11 177.89 488.41 176.4C492.9 174.85 495.67 170.86 495.69 165.84C495.71 160.84 495.7 155.83 495.7 150.83C495.71 146.46 495.74 142.09 495.7 137.72ZM456.28 155.75C446.8 155.81 438.15 147.23 438.08 137.69C438.01 128.03 446.54 119.36 456.13 119.35C465.79 119.33 474.34 127.84 474.37 137.5C474.4 147.63 466.41 155.68 456.28 155.75Z" fill="#B80504"/>
<path d="M165.95 124.62C165.95 119.41 165.94 114.2 165.95 108.98C165.97 102.81 170.64 98.07 176.66 98.07C182.47 98.07 187.23 102.96 187.24 109C187.26 118.42 187.2 127.85 187.26 137.27C187.31 146.34 193.44 153.72 202.25 155.46C213.11 157.61 223.4 149.42 223.53 138.37C223.64 128.58 223.55 118.79 223.56 108.99C223.57 103.56 227.88 98.65 233.09 98.12C238.61 97.56 243.79 101.4 244.88 106.9C245.02 107.62 245.04 108.36 245.04 109.1C245.05 118.58 245.05 128.05 245.05 137.53C245.05 157.22 230.56 173.75 211 176.57C189.05 179.73 173 165.48 167.74 150.01C166.48 146.29 165.93 142.45 165.94 138.52C165.96 133.89 165.95 129.26 165.95 124.62Z" fill="#B80504"/>
<path d="M253.96 151C254.1 146.63 253.54 141.24 254.19 135.9C256.07 120.29 264.59 109.61 278.95 103.51C283.93 101.39 289.2 100.17 294.65 100.61C299.96 101.04 304.31 106.19 304.16 111.47C304.01 116.75 299.71 121.16 294.26 121.55C291.63 121.74 289.02 121.93 286.54 122.97C279.79 125.79 275.41 132.27 275.38 139.68C275.34 148.68 275.4 157.68 275.36 166.68C275.34 171.17 272.72 175.01 268.84 176.42C264.43 178.02 259.55 176.91 256.66 173.62C254.77 171.46 254 168.87 253.98 166.05C253.94 161.36 253.96 156.68 253.96 151Z" fill="#B80504"/>
<path d="M334.41 140.67C334.41 149.36 334.37 158.04 334.42 166.73C334.48 175.41 326.19 178.89 320.36 176.82C316.25 175.36 313.4 171.33 313.39 166.68C313.37 148.99 313.37 131.31 313.39 113.62C313.4 107.88 317.91 103.24 323.72 102.92C328.95 102.62 333.62 106.78 334.27 112.42C334.47 114.14 334.4 115.89 334.4 117.62C334.41 125.3 334.41 132.99 334.41 140.67Z" fill="#B80504"/>
<path d="M312.09 84.05C312.11 77.59 317.27 72.44 323.75 72.42C330.25 72.4 335.52 77.67 335.49 84.16C335.46 90.57 330.21 95.8 323.79 95.82C317.32 95.84 312.07 90.56 312.09 84.05Z" fill="#B80504"/>
</svg>
